<?xml version="1.0" standalone="no"?>
<!DOCTYPE svg PUBLIC "-//W3C//DTD SVG 20010904//EN"
 "http://www.w3.org/TR/2001/REC-SVG-20010904/DTD/svg10.dtd">
<svg version="1.0" xmlns="http://www.w3.org/2000/svg"
 width="64.000000pt" height="64.000000pt" viewBox="0 0 64.000000 64.000000"
 preserveAspectRatio="xMidYMid meet">

<g transform="translate(0.000000,64.000000) scale(0.100000,-0.100000)"
fill="#000000" stroke="none">
<path d="M200 551 c-11 -16 -30 -31 -43 -33 -21 -3 -22 -7 -18 -67 4 -86 24
-131 56 -131 18 0 25 5 25 20 0 19 7 20 99 20 90 0 99 -2 104 -20 3 -12 14
-20 26 -20 26 0 51 56 51 116 0 23 4 45 10 49 16 10 -1 35 -24 35 -13 0 -31
12 -44 30 -22 30 -23 30 -122 30 -98 0 -99 0 -120 -29z m233 -20 c24 -41 21
-48 -7 -22 -26 24 -60 22 -70 -4 -4 -12 -24 -15 -86 -15 -44 0 -80 3 -80 6 0
3 8 19 17 35 17 29 18 29 113 29 95 0 96 0 113 -29z m-23 -31 c0 -5 -9 -10
-21 -10 -11 0 -17 5 -14 10 3 6 13 10 21 10 8 0 14 -4 14 -10z m69 -34 c7 -9
8 -27 3 -52 l-8 -39 -154 0 -155 0 -6 40 c-4 23 -3 45 3 53 15 18 301 17 317
-2z m-279 -116 c0 -5 -5 -10 -11 -10 -5 0 -7 5 -4 10 3 6 8 10 11 10 2 0 4 -4
4 -10z m260 0 c0 -5 -4 -10 -10 -10 -5 0 -10 5 -10 10 0 6 5 10 10 10 6 0 10
-4 10 -10z"/>
<path d="M174 435 c-4 -9 -2 -21 4 -27 15 -15 44 -1 40 19 -4 23 -36 29 -44 8z"/>
<path d="M246 441 c-4 -7 -5 -15 -2 -18 9 -9 19 4 14 18 -4 11 -6 11 -12 0z"/>
<path d="M270 436 c0 -9 5 -16 10 -16 6 0 10 4 10 9 0 6 -4 13 -10 16 -5 3
-10 -1 -10 -9z"/>
<path d="M300 436 c0 -9 5 -16 10 -16 6 0 10 4 10 9 0 6 -4 13 -10 16 -5 3
-10 -1 -10 -9z"/>
<path d="M331 434 c0 -11 3 -14 6 -6 3 7 2 16 -1 19 -3 4 -6 -2 -5 -13z"/>
<path d="M356 441 c-4 -7 -5 -15 -2 -18 9 -9 19 4 14 18 -4 11 -6 11 -12 0z"/>
<path d="M380 435 c0 -8 5 -15 10 -15 6 0 10 7 10 15 0 8 -4 15 -10 15 -5 0
-10 -7 -10 -15z"/>
<path d="M424 439 c-10 -17 23 -46 37 -32 7 7 9 19 6 27 -7 18 -33 21 -43 5z"/>
<path d="M270 390 c0 -5 23 -10 50 -10 28 0 50 5 50 10 0 6 -22 10 -50 10 -27
0 -50 -4 -50 -10z"/>
<path d="M396 284 c-19 -11 -39 -14 -60 -9 -87 18 -115 17 -151 -5 -31 -19
-36 -20 -41 -6 -4 11 -19 16 -51 16 l-44 0 7 -62 c4 -35 10 -83 13 -108 l6
-45 64 -3 64 -3 -6 30 c-6 27 -3 33 23 46 23 12 39 13 72 5 85 -19 106 -14
205 51 51 34 93 65 93 70 0 13 -21 22 -57 25 -19 1 -51 5 -71 8 -24 4 -47 0
-66 -10z m-49 -21 c79 -7 110 -33 39 -33 -25 0 -46 -4 -46 -10 0 -5 22 -10 50
-10 37 0 62 8 100 30 28 17 55 30 60 30 24 0 5 -19 -67 -68 -83 -55 -108 -61
-199 -43 -29 5 -49 4 -65 -5 -13 -7 -27 -13 -30 -14 -7 0 -34 89 -28 94 27 25
78 46 99 41 14 -4 53 -9 87 -12z m100 11 c-3 -3 -12 -4 -19 -1 -8 3 -5 6 6 6
11 1 17 -2 13 -5z m53 -2 c0 -5 -11 -14 -25 -20 -31 -14 -33 1 -2 16 28 14 27
13 27 4z m-346 -96 c31 -99 30 -96 10 -96 -8 0 -12 5 -9 10 10 16 -14 40 -32
33 -8 -3 -13 -13 -10 -24 3 -11 0 -19 -8 -19 -8 0 -15 19 -19 48 -20 146 -22
132 12 132 29 0 31 -3 56 -84z"/>
</g>
</svg>
